<svg width="350" height="136" viewBox="0 0 350 136" fill="none" xmlns="http://www.w3.org/2000/svg">
<path fill-rule="evenodd" clip-rule="evenodd" d="M200.588 68C203.975 64.6118 206.082 59.9059 206.082 54.7482C206.082 44.3953 197.69 36 187.342 36C176.994 36 168.603 44.3953 168.603 54.7482C168.603 59.9059 170.71 64.6118 174.097 68C170.71 71.3882 168.603 76.0941 168.603 81.2518C168.603 91.6047 176.994 100 187.342 100C197.69 100 206.082 91.6047 206.082 81.2518C206.082 76.0941 203.975 71.4259 200.588 68Z" fill="#23BEC6"/>
<path fill-rule="evenodd" clip-rule="evenodd" d="M164.915 90.6259V53.1294C164.915 47.9718 160.738 43.7553 155.546 43.7553C150.39 43.7553 146.176 47.9341 146.176 53.1294V90.6259C146.176 95.7835 150.353 100 155.546 100C160.738 100 164.915 95.8212 164.915 90.6259Z" fill="#D71F3C"/>
<path fill-rule="evenodd" clip-rule="evenodd" d="M245.63 43.7929H219.139C213.984 43.7929 209.77 47.9718 209.77 53.1671C209.77 58.3247 213.946 62.5412 219.139 62.5412H223.015V90.6259C223.015 95.7835 227.192 100 232.385 100C237.54 100 241.754 95.8212 241.754 90.6259V62.5035H245.63C250.785 62.5035 255 58.3247 255 53.1294C255 47.9718 250.823 43.7929 245.63 43.7929Z" fill="#D71F3C"/>
<path fill-rule="evenodd" clip-rule="evenodd" d="M133.119 100C138.274 100 142.488 95.8212 142.488 90.6259C142.488 85.4683 138.311 81.2518 133.119 81.2518H123.109C117.954 81.2518 113.739 77.073 113.739 71.8777C113.739 66.72 117.916 62.5035 123.109 62.5035H133.119C138.274 62.5035 142.488 58.3247 142.488 53.1294C142.488 47.9718 138.311 43.7553 133.119 43.7553H123.109C107.606 43.7553 95 56.3294 95 71.8777C95 87.3883 107.568 100 123.109 100H133.119Z" fill="#D71F3C"/>
<path fill-rule="evenodd" clip-rule="evenodd" d="M174.097 68C170.71 64.6118 168.603 59.9059 168.603 54.7483C168.603 44.7718 176.43 36.6024 186.251 36.0377C184.633 36.3012 183.09 37.0165 181.849 38.2588C178.801 41.3082 178.763 46.24 181.773 49.2894L216.543 84C220.193 87.6518 220.193 93.6 216.543 97.2518C212.893 100.904 206.947 100.904 203.297 97.2518L174.097 68Z" fill="#D71F3C"/>
</svg>
